<svg width="80" height="80" viewBox="0 0 80 80" fill="none" xmlns="http://www.w3.org/2000/svg">
<path d="M62.1225 74.2475H17.875C17.0292 74.2478 16.1916 74.0815 15.4101 73.758C14.6286 73.4344 13.9186 72.9601 13.3205 72.362C12.7224 71.7639 12.2481 71.0539 11.9245 70.2724C11.601 69.4909 11.4347 68.6533 11.435 67.8075V62.85L40 60L68.61 62.8475V67.7825C68.6014 69.4982 67.9149 71.1409 66.7 72.3524C65.4852 73.564 63.8407 74.2461 62.125 74.25L62.1225 74.2475Z" fill="#E19747"/>
<path d="M48.1675 17.5H31.8575C29.1266 17.4997 26.4223 18.0373 23.8992 19.0823C21.3761 20.1272 19.0835 21.6589 17.1525 23.59C15.2214 25.521 13.6897 27.8136 12.6447 30.3367C11.5998 32.8598 11.0622 35.5641 11.0625 38.295V41.6025H68.9875V38.295C68.9625 26.82 59.6425 17.5 48.1675 17.5Z" fill="#F3AD61"/>
<path d="M48.0175 23.6125C48.0268 23.8716 47.9838 24.13 47.8911 24.3721C47.7984 24.6143 47.6578 24.8353 47.4778 25.0219C47.2978 25.2085 47.082 25.3569 46.8433 25.4583C46.6047 25.5597 46.348 25.6119 46.0887 25.6119C45.8294 25.6119 45.5728 25.5597 45.3341 25.4583C45.0955 25.3569 44.8797 25.2085 44.6997 25.0219C44.5197 24.8353 44.3791 24.6143 44.2864 24.3721C44.1936 24.13 44.1507 23.8716 44.16 23.6125C44.178 23.113 44.3891 22.6399 44.7488 22.2929C45.1085 21.9459 45.5889 21.7519 46.0887 21.7519C46.5886 21.7519 47.0689 21.9459 47.4287 22.2929C47.7884 22.6399 47.9995 23.113 48.0175 23.6125ZM33.9125 25.5425C34.1716 25.5518 34.43 25.5088 34.6721 25.4161C34.9143 25.3234 35.1353 25.1828 35.3219 25.0028C35.5085 24.8228 35.6569 24.607 35.7583 24.3683C35.8597 24.1297 35.9119 23.873 35.9119 23.6137C35.9119 23.3545 35.8597 23.0978 35.7583 22.8592C35.6569 22.6205 35.5085 22.4047 35.3219 22.2247C35.1353 22.0447 34.9143 21.9041 34.6721 21.8114C34.43 21.7186 34.1716 21.6757 33.9125 21.685C33.413 21.703 32.9399 21.9141 32.5929 22.2738C32.2459 22.6336 32.0519 23.1139 32.0519 23.6137C32.0519 24.1136 32.2459 24.5939 32.5929 24.9537C32.9399 25.3134 33.413 25.5245 33.9125 25.5425ZM54.7325 29.025C54.7325 29.5369 54.5292 30.0278 54.1672 30.3897C53.8053 30.7517 53.3144 30.955 52.8025 30.955C52.2906 30.955 51.7997 30.7517 51.4378 30.3897C51.0758 30.0278 50.8725 29.5369 50.8725 29.025C50.8725 28.5131 51.0758 28.0222 51.4378 27.6603C51.7997 27.2983 52.2906 27.095 52.8025 27.095C53.3144 27.095 53.8053 27.2983 54.1672 27.6603C54.5292 28.0222 54.7325 28.5131 54.7325 29.025ZM27.2 30.955C27.7119 30.9547 28.2026 30.751 28.5643 30.3888C28.926 30.0267 29.1291 29.5356 29.1287 29.0237C29.1284 28.5119 28.9247 28.0211 28.5626 27.6594C28.2004 27.2977 27.7094 27.0947 27.1975 27.095C26.6856 27.095 26.1947 27.2983 25.8328 27.6603C25.4708 28.0222 25.2675 28.5131 25.2675 29.025C25.2675 29.5369 25.4708 30.0278 25.8328 30.3897C26.1947 30.7517 26.6856 30.955 27.1975 30.955H27.2ZM40 33.1575C40.2591 33.1668 40.5175 33.1238 40.7596 33.0311C41.0018 32.9384 41.2228 32.7978 41.4094 32.6178C41.596 32.4378 41.7444 32.222 41.8458 31.9833C41.9472 31.7447 41.9994 31.488 41.9994 31.2287C41.9994 30.9694 41.9472 30.7128 41.8458 30.4742C41.7444 30.2355 41.596 30.0197 41.4094 29.8397C41.2228 29.6597 41.0018 29.5191 40.7596 29.4264C40.5175 29.3336 40.2591 29.2907 40 29.3C39.5005 29.318 39.0274 29.5291 38.6804 29.8888C38.3334 30.2486 38.1394 30.7289 38.1394 31.2287C38.1394 31.7286 38.3334 32.2089 38.6804 32.5687C39.0274 32.9284 39.5005 33.1395 40 33.1575Z" fill="#FFF3D7"/>
<path d="M68.585 41.025H11.4125V49.0425L39.9525 53.895L68.585 49.0425V41.025Z" fill="#F8312F"/>
<path d="M14.5975 37.9375C16.7775 36.775 19.365 35.4125 24.165 35.4125C28.9675 35.4125 31.55 36.7775 33.7275 37.9375L33.7725 37.9625C35.535 38.905 36.9225 39.645 40.0225 39.645C43.1275 39.645 44.5125 38.905 46.275 37.965L46.3225 37.94C48.4975 36.7775 51.0825 35.4125 55.885 35.4125C60.685 35.4125 63.27 36.7775 65.445 37.94L65.495 37.965C67.2525 38.9075 68.6325 39.645 71.72 39.645C72.6443 39.645 73.5307 40.0122 74.1843 40.6657C74.8378 41.3193 75.205 42.2057 75.205 43.13C75.205 44.0543 74.8378 44.9407 74.1843 45.5943C73.5307 46.2478 72.6443 46.615 71.72 46.615C66.915 46.615 64.3325 45.2475 62.1575 44.085L62.1075 44.06C60.3475 43.1175 58.97 42.38 55.8825 42.38C52.8 42.38 51.42 43.1175 49.6575 44.0575L49.605 44.0875C47.425 45.25 44.8375 46.6125 40.025 46.6125C35.2125 46.6125 32.625 45.25 30.445 44.0875L30.3925 44.0575C28.63 43.1175 27.25 42.3825 24.1675 42.3825C21.0775 42.3825 19.6925 43.12 17.9225 44.0625L17.875 44.0875C15.695 45.25 13.1075 46.6125 8.30749 46.6125C7.84214 46.625 7.37902 46.5441 6.94545 46.3746C6.51188 46.2051 6.11666 45.9505 5.78311 45.6258C5.44957 45.3011 5.18446 44.9128 5.00344 44.4839C4.82242 44.0551 4.72916 43.5943 4.72916 43.1288C4.72916 42.6632 4.82242 42.2024 5.00344 41.7736C5.18446 41.3447 5.44957 40.9564 5.78311 40.6317C6.11666 40.307 6.51188 40.0524 6.94545 39.8829C7.37902 39.7134 7.84214 39.6325 8.30749 39.645C11.395 39.645 12.7825 38.9075 14.55 37.9625L14.5975 37.9375Z" fill="#44911B"/>
<path d="M69.1875 62.8475H10.8125C9.27134 62.8462 7.79367 62.2334 6.7039 61.1436C5.61414 60.0538 5.00132 58.5762 5 57.035C5.00132 55.4938 5.61414 54.0162 6.7039 52.9264C7.79367 51.8366 9.27134 51.2238 10.8125 51.2225H69.1875C70.7287 51.2238 72.2063 51.8366 73.2961 52.9264C74.3859 54.0162 74.9987 55.4938 75 57.035C74.9987 58.5762 74.3859 60.0538 73.2961 61.1436C72.2063 62.2334 70.7287 62.8462 69.1875 62.8475Z" fill="#6D4534"/>
<path d="M68.585 49.0425H11.4125V51.2225L29.6275 55.305C36.4425 56.835 43.5325 56.835 50.3475 55.305L68.56 51.2225V49.0425H68.585Z" fill="#FCD53F"/>
</svg>
